<?xml version="1.0" encoding="utf-8"?>
<!-- Generator: Adobe Illustrator 15.0.0, SVG Export Plug-In . SVG Version: 6.00 Build 0)  -->
<!DOCTYPE svg PUBLIC "-//W3C//DTD SVG 1.1//EN" "http://www.w3.org/Graphics/SVG/1.1/DTD/svg11.dtd">
<svg version="1.1" id="Layer_1" xmlns="http://www.w3.org/2000/svg" xmlns:xlink="http://www.w3.org/1999/xlink" x="0px" y="0px"
	 width="72px" height="72px" viewBox="0 0 72 72" enable-background="new 0 0 72 72" xml:space="preserve">
<rect x="36" fill="none" width="36" height="36"/>
<polygon fill="#439343" points="65.6,19.2 53.8,7.8 42.5,19.2 45,21.8 52.2,14.7 52.2,28.2 55.8,28.2 55.8,15 62.8,21.8 "/>
<rect x="0" fill="none" width="36" height="36"/>
<polygon fill="#999999" points="9.1,21.8 16.2,15 16.2,28.2 19.8,28.2 19.8,14.7 27,21.8 29.6,19.2 18.1,7.8 6.4,19.2 "/>
<rect x="0" y="36" fill="none" width="36" height="36"/>
<polygon fill="#999999" points="6.402,52.8 18.1,64.2 29.599,52.8 27,50.2 19.799,57.3 19.799,43.8 16.201,43.8 16.201,57 9.1,50.2 
	"/>
<rect x="36" y="36" fill="none" width="36" height="36"/>
<polygon fill="#C72026" points="62.801,50.2 55.799,57 55.799,43.8 52.201,43.8 52.201,57.3 45,50.2 42.402,52.8 53.801,64.2 
	65.599,52.8 "/>
</svg>
